<svg id="visual" viewBox="0 0 900 300" width="900" height="300" xmlns="http://www.w3.org/2000/svg" xmlns:xlink="http://www.w3.org/1999/xlink" version="1.1"><rect x="0" y="0" width="900" height="300" fill="#020c14"></rect><path d="M0 179L21.5 178.3C43 177.7 86 176.3 128.8 181.3C171.7 186.3 214.3 197.7 257.2 203.8C300 210 343 211 385.8 206.8C428.7 202.7 471.3 193.3 514.2 195.2C557 197 600 210 642.8 214.7C685.7 219.3 728.3 215.7 771.2 213.3C814 211 857 210 878.5 209.5L900 209L900 301L878.5 301C857 301 814 301 771.2 301C728.3 301 685.7 301 642.8 301C600 301 557 301 514.2 301C471.3 301 428.7 301 385.8 301C343 301 300 301 257.2 301C214.3 301 171.7 301 128.8 301C86 301 43 301 21.5 301L0 301Z" fill="#c62368"></path><path d="M0 230L21.5 230.7C43 231.3 86 232.7 128.8 227.8C171.7 223 214.3 212 257.2 209.5C300 207 343 213 385.8 217.5C428.7 222 471.3 225 514.2 220.7C557 216.3 600 204.7 642.8 203.5C685.7 202.3 728.3 211.7 771.2 215.3C814 219 857 217 878.5 216L900 215L900 301L878.5 301C857 301 814 301 771.2 301C728.3 301 685.7 301 642.8 301C600 301 557 301 514.2 301C471.3 301 428.7 301 385.8 301C343 301 300 301 257.2 301C214.3 301 171.7 301 128.8 301C86 301 43 301 21.5 301L0 301Z" fill="#da3f67"></path><path d="M0 241L21.5 240.3C43 239.7 86 238.3 128.8 239.8C171.7 241.3 214.3 245.7 257.2 248.3C300 251 343 252 385.8 253.5C428.7 255 471.3 257 514.2 259.8C557 262.7 600 266.3 642.8 263.5C685.7 260.7 728.3 251.3 771.2 246.5C814 241.7 857 241.3 878.5 241.2L900 241L900 301L878.5 301C857 301 814 301 771.2 301C728.3 301 685.7 301 642.8 301C600 301 557 301 514.2 301C471.3 301 428.7 301 385.8 301C343 301 300 301 257.2 301C214.3 301 171.7 301 128.8 301C86 301 43 301 21.5 301L0 301Z" fill="#eb5967"></path><path d="M0 285L21.5 281.3C43 277.7 86 270.3 128.8 264.7C171.7 259 214.3 255 257.2 257C300 259 343 267 385.8 269.2C428.7 271.3 471.3 267.7 514.2 269.8C557 272 600 280 642.8 279.8C685.7 279.7 728.3 271.3 771.2 269C814 266.7 857 270.3 878.5 272.2L900 274L900 301L878.5 301C857 301 814 301 771.2 301C728.3 301 685.7 301 642.8 301C600 301 557 301 514.2 301C471.3 301 428.7 301 385.8 301C343 301 300 301 257.2 301C214.3 301 171.7 301 128.8 301C86 301 43 301 21.5 301L0 301Z" fill="#fa7268"></path></svg>