<svg id="visual" viewBox="0 0 900 250" width="900" height="250" xmlns="http://www.w3.org/2000/svg" xmlns:xlink="http://www.w3.org/1999/xlink" version="1.1"><rect x="0" y="0" width="900" height="250" fill="#000910"></rect><defs><linearGradient id="grad1_0" x1="72.2%" y1="0%" x2="100%" y2="100%"><stop offset="-22%" stop-color="#000910" stop-opacity="1"></stop><stop offset="122%" stop-color="#000910" stop-opacity="1"></stop></linearGradient></defs><defs><linearGradient id="grad2_0" x1="0%" y1="0%" x2="27.8%" y2="100%"><stop offset="-22%" stop-color="#000910" stop-opacity="1"></stop><stop offset="122%" stop-color="#000910" stop-opacity="1"></stop></linearGradient></defs><g transform="translate(900, 0)"><path d="M0 125C-16.9 123.7 -33.7 122.3 -47.8 115.5C-62 108.6 -73.4 96.2 -84.1 84.1C-94.9 72.1 -105.1 60.3 -111.8 46.3C-118.5 32.3 -121.7 16.2 -125 0L0 0Z" fill="#ff7300"></path></g><g transform="translate(0, 250)"><path d="M0 -125C12.7 -112.7 25.3 -100.5 39 -94.2C52.7 -88 67.4 -87.7 81.3 -81.3C95.2 -74.9 108.3 -62.4 115.5 -47.8C122.6 -33.3 123.8 -16.6 125 0L0 0Z" fill="#ff7300"></path></g></svg>